# xmcd
#
# Track frame offsets: 
#        150
#        11865
#        28411
#        40739
#        53424
#        68558
#        90110
#        105995
#        125603
#        142095
#        154799
#        174477
#        190197
#        203855
#        223908
#
# Disc length: 3192 seconds
#
# Revision: 0
# Processed by: cddbd v1.5.2PL0 Copyright (c) Steve Scherf et al.
# Submitted via: ExactAudioCopyFreeDBPlugin 1.0
#
DISCID=cc0c760f
DTITLE=First Aid Kit - The Big Black and The Blue
DYEAR=2013
DGENRE=Country
TTITLE0=In the Morning
TTITLE1=Hard Believer
TTITLE2=Sailor Song
TTITLE3=Waltz For Richard
TTITLE4=Heavy Storm
TTITLE5=Ghost Town
TTITLE6=Josefin
TTITLE7=A Window Opens
TTITLE8=Winter is All Over You
TTITLE9=I Met Up With the King
TTITLE10=Wills of the River
TTITLE11=Hard Believer (Live at KCRW)
TTITLE12=Heavy Storm (Live at KCRW)
TTITLE13=Ghost Town (Live at KCRW)
TTITLE14=I Met Up With the King (Live at KCRW)
EXTD=
EXTT0=
EXTT1=
EXTT2=
EXTT3=
EXTT4=
EXTT5=
EXTT6=
EXTT7=
EXTT8=
EXTT9=
EXTT10=
EXTT11=
EXTT12=
EXTT13=
EXTT14=
PLAYORDER=
